<svg width="530" height="752" viewBox="0 0 530 752" fill="none" xmlns="http://www.w3.org/2000/svg">
<path d="M97.0955 360.141C91.7836 360.471 86.5429 361.535 81.5224 363.301C80.8627 363.637 80.1576 363.875 79.4291 364.008C75.6292 364.128 71.8293 364.074 68.0427 364.221C65.9305 364.275 63.8261 364.498 61.7494 364.888C54.7762 366.221 47.8297 367.781 40.8698 369.234C38.2032 371.381 34.7632 370.714 31.7633 371.594C31.0371 371.785 30.2749 371.794 29.5446 371.619C28.8142 371.445 28.1382 371.093 27.5767 370.594C27.1258 370.23 26.5634 370.031 25.9834 370.031C25.4034 370.031 24.841 370.23 24.3901 370.594C23.5701 371.076 22.7035 371.474 21.8035 371.781C19.5768 372.394 18.5102 371.848 17.1369 370.034C15.1144 367.206 14.2771 363.698 14.8036 360.261C14.9769 358.128 14.1236 355.915 13.8569 353.728C13.7368 352.363 13.6968 350.991 13.7369 349.621C13.8688 347.846 13.656 346.062 13.1103 344.368C12.2391 341.433 11.6322 338.425 11.297 335.382C11.2679 334.96 11.3459 334.538 11.5236 334.155C12.0538 332.481 12.2186 330.712 12.007 328.969C11.7954 327.225 11.2123 325.547 10.297 324.048C9.86069 323.378 9.57105 322.622 9.44697 321.832C9.3229 321.042 9.36718 320.234 9.57698 319.462C9.83488 318.933 9.91068 318.334 9.79251 317.757C9.67434 317.181 9.36885 316.66 8.92367 316.275C7.2837 314.755 7.11036 312.755 6.77704 310.769C6.70836 309.824 6.55667 308.887 6.32372 307.969C4.44801 302.663 3.54468 297.062 3.65709 291.436C3.60298 290.277 3.44231 289.125 3.1771 287.996C2.95044 286.662 2.67045 285.329 2.43045 283.996C2.11046 282.223 1.87047 280.436 1.45714 278.663C0.556732 275.72 0.528947 272.58 1.37714 269.623C1.88406 267.342 1.66494 264.96 0.750487 262.81C-0.342828 259.876 0.0571562 256.996 0.137155 254.09C0.217153 251.183 1.21714 248.316 0.80381 245.556C-0.0361756 239.837 0.803802 234.117 0.337143 228.41C0.455375 227.287 0.687687 226.179 1.03047 225.103C1.13132 223.317 1.32269 221.537 1.6038 219.77C2.49712 216.037 2.45712 212.117 4.72375 208.624C5.43805 207.447 5.79784 206.089 5.76 204.712C5.72217 203.336 5.2883 202 4.51041 200.864C4.3338 200.578 4.21885 200.258 4.17293 199.925C4.12701 199.592 4.15114 199.254 4.24375 198.931C5.45192 196.224 6.15243 193.318 6.31039 190.357C6.47694 189.552 6.78869 188.784 7.23038 188.091C7.57704 187.451 8.39034 186.944 8.48367 186.304C9.19033 181.518 12.1769 177.824 14.4169 173.784C15.5625 171.636 16.1795 169.246 16.2169 166.811C16.2932 165.01 16.9268 163.277 18.0302 161.851C19.6702 159.518 21.2968 157.145 22.7368 154.678C23.4007 153.471 23.8517 152.158 24.0701 150.798C24.2331 149.587 24.7137 148.441 25.4631 147.476C26.2124 146.512 27.2039 145.762 28.3367 145.305C29.1493 144.853 29.8796 144.267 30.4966 143.572C31.0166 143.078 31.3366 142.238 31.9233 141.972C32.6932 141.595 33.3324 140.996 33.7579 140.252C34.1834 139.508 34.3757 138.653 34.3099 137.798C34.35 137.225 34.5081 136.666 34.7742 136.157C35.0404 135.648 35.4088 135.199 35.8566 134.838C38.0777 132.605 39.984 130.08 41.5231 127.332C42.808 125.377 44.3969 123.639 46.2297 122.185C47.5667 120.988 49.008 119.913 50.5363 118.972C51.1714 118.612 51.9043 118.463 52.6296 118.545C53.3186 118.665 54.0277 118.535 54.6291 118.178C55.2305 117.821 55.6846 117.261 55.9095 116.599C57.1095 113.812 59.5228 112.319 61.8694 110.705C65.2694 108.372 68.536 105.879 71.9226 103.559C73.9708 102.073 76.123 100.737 78.3625 99.559C81.2825 98.1056 84.3757 97.0123 87.3624 95.6924C88.3104 95.2324 89.2047 94.669 90.029 94.0124C95.3186 90.2616 101.039 87.1594 107.069 84.7725C109.735 83.6259 112.242 81.8526 114.989 80.8526C119.828 79.0926 124.322 76.146 129.655 76.0394C130.626 75.9852 131.54 75.5661 132.215 74.866C134.402 72.3727 137.801 71.6661 140.028 69.0928C141.361 67.5595 143.881 67.0528 145.908 66.1729C147.681 65.5967 149.41 64.8927 151.081 64.0662C152.935 62.9062 154.681 61.8263 156.961 62.0929C157.872 62.1397 158.782 61.9914 159.63 61.658C160.479 61.3246 161.246 60.8137 161.881 60.1596C163.555 58.8452 165.595 58.0814 167.721 57.973C169.477 57.6277 171.196 57.1142 172.854 56.4397C177.787 54.7997 182.827 53.3997 187.601 51.3598C189.901 50.3547 192.301 49.5949 194.761 49.0931C196.288 48.7417 197.847 48.5407 199.414 48.4932C202.96 48.4932 205.147 45.4932 208.347 44.7599C210.606 44.3549 212.771 43.5368 214.734 42.3466C215.578 42.0004 216.489 41.85 217.4 41.9066C218.638 41.9821 219.88 41.8924 221.093 41.6399C224.329 40.3955 227.507 39.0133 230.627 37.4933C232.72 36.4667 234.627 35.0534 237.106 35.0667C237.941 34.9154 238.725 34.5579 239.386 34.0267C241.24 32.9868 243.266 32.3734 245.173 31.5334C249.013 29.8401 253.173 28.7868 256.626 26.2002C260.559 23.1869 264.559 19.987 269.026 17.9737C274.339 15.5856 279.423 12.7159 284.212 9.40049C284.298 9.33453 284.392 9.28068 284.492 9.24049C288.266 8.46717 290.972 5.96055 294.052 3.90725C296.719 2.12061 299.625 -0.0926823 303.652 0.640639C306.319 1.1473 309.332 0.320644 312.185 0.0939814C317.518 -0.319345 322.318 0.53397 326.332 4.60057C328.685 7.03492 330.813 9.67671 332.691 12.4938C334.072 14.0906 335.541 15.6085 337.091 17.0404C337.271 17.3068 337.505 17.5317 337.778 17.6997C338.052 17.8677 338.358 17.9749 338.677 18.0141C338.996 18.0533 339.319 18.0235 339.625 17.9268C339.931 17.8302 340.213 17.6688 340.451 17.4537C342.126 16.2844 344.167 15.7588 346.198 15.9737C346.717 16.0812 347.252 16.0812 347.771 15.9737C351.531 14.6404 355.264 13.2271 359.038 11.9738C359.931 11.6671 360.918 11.6405 361.824 11.3871C363.277 11.1147 364.692 10.667 366.038 10.0538C368.974 8.32447 372.355 7.49897 375.757 7.68052C377.864 7.77385 379.984 7.53386 382.077 7.68052C382.931 7.70216 383.771 7.90886 384.537 8.28638C385.304 8.66389 385.979 9.20322 386.517 9.86715C387.007 10.5638 387.675 11.1163 388.451 11.4671C393.89 13.5204 397.69 18.1337 402.877 20.6003C404.923 21.7869 406.641 23.464 407.877 25.4802C410.944 29.9068 413.623 34.5867 416.597 39.08C417.573 40.8285 418.142 42.7744 418.263 44.7732C419.143 50.1865 419.45 55.6664 421.023 60.9996C421.85 63.8529 421.503 67.0662 421.623 70.1195C421.623 71.0661 421.45 72.0261 421.437 72.9727C421.437 75.186 421.437 77.3993 421.437 79.6393C421.437 81.8793 421.85 82.3859 423.983 82.9726C425.065 83.3002 426.107 83.7474 427.09 84.3059C431.436 86.6258 435.356 89.6391 440.543 90.4391C444.018 90.9667 447.3 92.3759 450.076 94.5324C451.428 95.3371 452.869 95.9815 454.369 96.4523C456.793 97.4907 459 98.9741 460.876 100.826C463.543 103.492 466.529 106.279 470.769 106.852C471.813 106.967 472.823 107.29 473.739 107.803C474.656 108.316 475.459 109.009 476.102 109.839C478.276 112.505 481.262 114.532 483.956 116.745C486.307 118.763 488.105 121.347 489.182 124.252C490.739 127.615 493.097 130.545 496.049 132.785C499.502 135.732 503.049 138.572 506.462 141.572C507.035 142.065 507.142 143.092 507.529 143.838C508.555 145.785 509.622 147.718 510.635 149.678C511.048 150.397 511.362 151.168 511.568 151.971C511.728 152.678 511.422 153.531 511.688 154.185C513.168 157.971 514.275 162.011 517.022 165.091C517.944 166.093 518.596 167.314 518.915 168.638C519.338 170.032 519.846 171.399 520.435 172.731C520.502 172.918 520.782 173.038 520.835 173.211C522.168 178.544 525.008 183.331 524.835 189.091C524.906 193.548 525.208 197.998 525.742 202.424C525.788 203.906 525.921 205.384 526.141 206.85C526.475 208.49 527.061 210.077 527.475 211.677C527.741 212.584 528.035 213.49 528.235 214.344C528.755 216.837 529.808 219.37 529.568 221.797C529.328 224.224 528.741 226.557 528.715 229.023C528.688 231.49 527.902 233.917 528.208 236.263C528.781 240.823 526.982 245.023 526.755 249.423C526.635 251.53 525.901 253.65 526.062 255.703C526.36 259.637 525.72 263.585 524.195 267.223C523.347 269.275 523.021 271.507 523.248 273.716C523.502 276.303 522.728 278.969 523.675 281.556C523.716 281.712 523.725 281.876 523.703 282.036C523.68 282.196 523.625 282.35 523.542 282.489C521.742 285.596 521.768 289.156 520.955 292.516C520.307 294.652 519.412 296.706 518.288 298.636C517.464 300.531 516.89 302.525 516.582 304.569C515.542 309.355 516.008 314.622 512.582 318.769C512.111 319.585 511.829 320.496 511.755 321.435C511.288 323.582 510.915 324.008 508.768 323.808C505.742 323.515 502.715 323.102 499.729 322.542C498.536 322.197 497.393 321.7 496.329 321.062C495.755 320.782 495.235 320.182 494.675 320.142C491.649 319.955 491.369 317.769 491.475 315.595C491.588 314.547 491.423 313.488 490.997 312.524C490.571 311.56 489.899 310.725 489.049 310.102C487.681 308.785 486.577 307.219 485.796 305.489C485.226 304.242 484.207 303.257 482.942 302.729C481.759 302.095 480.631 301.363 479.569 300.542C475.822 298.236 472.556 295.116 468.009 294.129C466.295 293.568 464.679 292.74 463.223 291.676C461.792 290.795 460.143 290.333 458.463 290.342C456.793 290.261 455.181 289.711 453.809 288.756C449.916 286.169 445.956 284.142 441.103 283.969C439.65 283.969 438.063 282.636 436.863 281.516C435.645 280.266 434.016 279.498 432.276 279.356C428.93 279.049 425.61 278.556 422.21 278.409C420.219 278.152 418.278 277.599 416.45 276.769C415.657 276.454 414.802 276.325 413.952 276.392C413.101 276.459 412.277 276.72 411.544 277.156C409.755 278.095 407.707 278.418 405.717 278.076C402.37 277.729 398.917 277.463 395.637 278.809C395.139 278.991 394.605 279.055 394.077 278.996C391.277 278.649 389.091 279.969 386.611 281.009C384.131 282.049 381.357 284.289 378.037 283.502C377.401 283.403 376.75 283.515 376.184 283.822C373.971 284.982 371.771 286.169 369.651 287.489C366.171 289.636 362.824 291.862 358.611 292.609C356.878 292.902 355.344 294.462 353.744 295.476C352.144 296.489 350.825 297.516 349.265 298.342C347.025 299.529 345.171 300.862 344.398 303.489C343.686 305.587 342.835 307.636 341.851 309.622C341.495 310.331 341.324 311.118 341.354 311.911C341.384 312.704 341.615 313.476 342.025 314.155C343.638 317.089 343.251 319.249 340.985 321.689C340.669 322.082 340.217 322.344 339.718 322.422C337.385 322.315 335.718 323.848 333.931 324.848C331.532 326.182 329.172 327.515 326.798 328.848C326.532 328.995 326.065 329.062 325.998 329.275C325.118 332.008 322.812 333.075 320.492 334.222C320.247 334.407 320.042 334.639 319.888 334.904C319.735 335.17 319.636 335.464 319.598 335.768C319.105 338.835 317.145 340.541 314.452 341.715C313.606 342.145 312.853 342.739 312.238 343.461C311.685 344.189 310.898 344.705 310.01 344.923C309.123 345.142 308.187 345.049 307.359 344.661C306.694 344.349 305.948 344.251 305.225 344.381C302.017 345.068 298.7 345.068 295.492 344.381C294.838 344.314 294.205 344.109 293.636 343.781C293.066 343.452 292.572 343.007 292.186 342.475C289.452 339.248 286.506 336.208 283.599 333.142C283.114 332.753 282.563 332.454 281.972 332.262C279.306 331.035 277.146 329.475 277.039 326.022C276.853 323.157 276.488 320.307 275.946 317.489C275.796 316.762 275.511 316.07 275.106 315.449C273.959 313.555 272.746 311.715 271.559 309.835C271.439 309.662 271.413 309.409 271.253 309.289C269.919 308.209 267.986 307.422 267.359 306.035C266.518 304.443 265.08 303.249 263.359 302.715C262.187 302.321 260.976 302.052 259.746 301.915C258.519 301.635 257.319 301.262 256.093 300.982L245.88 298.649C244.226 298.262 242.546 297.942 240.92 297.476C236.843 296.3 232.592 295.849 228.36 296.142C227.203 296.111 226.055 295.928 224.947 295.596C223.75 295.172 222.512 294.877 221.253 294.716C219.664 294.685 218.121 294.173 216.827 293.249C215.739 292.573 214.496 292.187 213.217 292.128C211.938 292.07 210.665 292.341 209.52 292.916C208.732 293.355 207.851 293.6 206.949 293.633C206.048 293.665 205.151 293.483 204.334 293.102C203.368 292.66 202.305 292.475 201.247 292.563C200.189 292.652 199.172 293.012 198.294 293.609C196.829 294.661 195.01 295.096 193.227 294.822C192.161 294.596 190.561 295.556 189.614 296.409C188.444 297.515 187.005 298.294 185.439 298.668C183.874 299.043 182.237 298.999 180.694 298.542C179.419 298.165 178.072 298.102 176.768 298.357C175.463 298.612 174.239 299.179 173.201 300.009C170.401 302.014 166.98 302.96 163.548 302.675C162.078 302.647 160.651 303.17 159.548 304.142C158.472 304.977 157.321 305.709 156.108 306.329C151.815 308.382 147.588 310.422 144.108 313.889C142.663 315.465 140.777 316.571 138.695 317.062C134.988 317.622 133.135 320.235 130.842 322.529C129.843 323.615 128.606 324.455 127.228 324.982C124.925 325.83 122.928 327.349 121.495 329.342C119.707 331.544 118.038 333.841 116.495 336.222C116.231 336.909 116.139 337.651 116.229 338.382C116.229 339.955 116.229 341.528 116.229 343.101C116.177 344.004 115.92 344.884 115.476 345.672C115.033 346.46 114.414 347.136 113.669 347.648C111.815 349.235 110.135 351.008 108.335 352.688C106.122 354.821 103.962 357.021 101.669 359.035C100.415 360.248 98.7355 361.021 97.0955 360.141ZM476.942 265.263C476.426 268.414 477.02 271.647 478.622 274.409C478.914 275.031 479.388 275.55 479.98 275.898C480.573 276.245 481.257 276.405 481.942 276.356C483.205 276.365 484.464 276.495 485.702 276.743C491.315 277.703 496.462 280.743 502.355 280.503C502.915 280.503 503.502 280.983 504.062 281.263C506.289 282.369 508.449 281.476 508.849 279.116C509.25 276.824 509.5 274.508 509.595 272.183C509.632 269.414 510.264 266.686 511.448 264.183C512.14 262.872 512.502 261.412 512.502 259.93C512.099 255.386 512.198 250.812 512.795 246.29C512.809 245.331 512.751 244.373 512.622 243.423C512.622 241.437 512.755 239.423 512.715 237.45C512.818 235.872 512.697 234.287 512.355 232.743C511.53 229.877 511.619 226.824 512.608 224.01C513.623 220.112 513.366 215.992 511.875 212.25C511.075 209.89 509.515 207.717 510.542 204.997C510.642 204.37 510.529 203.727 510.222 203.171C509.248 200.771 509.315 198.197 508.795 195.744C507.995 192.037 506.622 188.464 505.502 184.824C504.928 183.012 503.91 181.371 502.542 180.051C500.698 178.239 499.596 175.805 499.449 173.224C499.256 170.675 498.441 168.212 497.075 166.051C495.649 163.531 494.409 160.718 491.582 159.265C490.609 158.731 490.076 157.358 489.355 156.345C487.902 154.305 486.489 152.238 485.009 150.225C484.255 149.241 483.445 148.302 482.582 147.411C480.459 144.931 478.197 142.572 475.809 140.345C473.408 138.277 471.203 135.992 469.222 133.518C467.569 131.478 465.743 129.518 463.969 127.625C463.543 127.158 463.009 126.772 462.636 126.292C459.076 121.745 454.063 119.199 449.156 116.532C448.305 116.094 447.353 115.887 446.396 115.932C445.723 116.029 445.036 115.907 444.438 115.583C443.84 115.258 443.362 114.75 443.076 114.132C442.305 113.016 441.205 112.168 439.93 111.705C437.583 110.799 435.063 110.372 432.663 109.505C430.828 108.952 429.044 108.242 427.33 107.385C423.33 105.252 419.477 102.932 415.517 100.719C412.17 98.8923 408.69 97.2923 405.424 95.3857C404.248 94.5337 403.293 93.4139 402.637 92.1191C401.839 90.6305 401.166 89.0786 400.624 87.4792C400.262 86.6341 400.054 85.7309 400.01 84.8125C400.233 83.1686 400.344 81.5115 400.344 79.8526C399.73 75.426 399.104 71.0394 399.957 66.5195C400.016 65.572 399.917 64.6212 399.664 63.7062C399.157 60.7863 398.61 57.8797 398.064 54.9731C397.936 54.2625 397.739 53.5659 397.477 52.8931C396.69 50.9331 395.877 48.9732 394.997 47.0532C394.599 46.0898 394.06 45.191 393.397 44.3866C391.557 42.3333 389.504 40.4666 387.731 38.3733C385.957 36.28 384.771 33.4401 381.824 32.3734C381.277 32.1734 380.891 31.5068 380.491 31.0401C379.625 29.9654 378.496 29.1329 377.213 28.6236C375.931 28.1143 374.538 27.9455 373.171 28.1335C368.798 28.8135 364.278 29.0135 360.798 32.4268C359.904 33.1884 358.837 33.7194 357.691 33.9734C355.024 34.7067 352.358 35.3067 349.691 35.8267C346.251 36.44 342.718 36.6267 339.331 37.4534C335.078 38.48 331.185 38.28 327.518 35.8C326.672 35.1518 325.75 34.61 324.772 34.1867C323.12 33.5889 321.61 32.6545 320.339 31.4426C319.067 30.2308 318.062 28.7679 317.385 27.1469C316.776 25.6712 316.021 24.2598 315.132 22.9336C312.759 19.627 309.705 19.827 307.492 21.8003C306.69 22.433 305.839 22.9993 304.945 23.4936C304.319 23.8669 303.612 24.1736 303.025 24.5736C301.905 25.2802 300.785 26.0135 299.679 26.7602C296.705 28.7735 292.625 28.5068 290.119 31.5068C289.746 31.9468 288.786 31.8934 287.999 31.9468C287.461 31.9275 286.933 32.0969 286.507 32.4256C286.081 32.7543 285.783 33.2216 285.666 33.7467C285.451 34.4606 285.071 35.1139 284.557 35.6536C284.043 36.1933 283.408 36.6044 282.706 36.8534C281.672 37.2102 280.786 37.8995 280.186 38.8133C279.786 39.7292 279.177 40.5389 278.409 41.1778C277.64 41.8168 276.733 42.2672 275.759 42.4933C274.948 42.7651 274.196 43.1906 273.546 43.7466C269.232 47.1775 264.433 49.9498 259.306 51.9731C255.573 53.5331 251.186 53.8264 248.346 57.3063C248.025 57.5887 247.614 57.7491 247.186 57.7597C243.84 58.1863 240.773 59.8396 237.266 59.8396C235.76 59.8396 234.266 61.1729 232.747 61.8929C230.96 62.7329 229.16 63.5596 227.333 64.3062C226.573 64.6262 225.467 64.4796 224.96 64.9729C222.693 67.2262 219.76 67.7462 216.88 68.5061C213.014 69.5328 209.067 70.3595 205.28 71.6261C202.694 72.4928 200.387 74.1727 197.427 73.4794C196.788 73.3805 196.134 73.5028 195.574 73.8261C192.752 75.5224 189.532 76.4424 186.241 76.4927C186.033 76.5353 185.832 76.6025 185.641 76.6927C183.067 77.3593 180.481 78.026 177.947 78.7326C176.256 79.3148 174.599 79.996 172.988 80.7726C171.654 81.3726 170.321 82.5992 168.988 82.6259C167.094 82.6259 165.841 83.7459 164.334 84.3992C163.561 84.7325 162.854 85.1992 162.094 85.5725C159.721 86.7458 157.361 87.9192 154.988 89.0391C152.215 90.3724 149.548 92.1858 146.628 92.7591C143.221 93.3999 140.019 94.8545 137.295 96.999C134.656 98.9617 131.621 100.327 128.402 100.999C122.895 102.332 117.255 103.319 112.575 106.879C112.489 106.941 112.395 106.99 112.295 107.025C109.215 108.119 106.162 109.239 103.069 110.292C100.999 110.77 99.1056 111.819 97.6022 113.319C96.9751 113.892 96.2472 114.344 95.4555 114.652C92.3889 116.265 88.9356 117.425 86.3357 119.599C83.7357 121.772 80.7491 122.972 77.9225 124.572C74.4826 126.519 71.0559 128.652 69.0026 132.078C67.1382 135.31 64.1841 137.773 60.6694 139.025C59.905 139.251 59.2035 139.652 58.6204 140.196C58.0374 140.74 57.5886 141.411 57.3095 142.158C56.8248 143.314 56.2636 144.437 55.6295 145.518C53.4429 149.705 49.243 152.091 46.403 155.758C44.2164 158.611 41.6298 161.091 40.4298 164.611C39.8738 166.346 38.6898 167.811 37.1099 168.718C35.9328 169.405 34.9449 170.374 34.2351 171.538C33.5253 172.701 33.1157 174.023 33.0433 175.384C32.9156 177.577 32.5535 179.749 31.9633 181.864C31.3633 184.371 29.5233 186.237 28.7633 188.611C27.8433 191.517 27.8567 194.731 25.6567 197.197C25.3634 197.531 25.4567 198.224 25.3634 198.744C24.8834 201.131 24.4701 203.531 23.9101 205.89C23.5101 207.517 22.8434 209.077 22.4168 210.704C21.9901 212.33 21.6968 214.21 21.2434 215.93C20.3501 218.995 20.1632 222.223 20.6968 225.37C20.9976 226.388 20.9976 227.472 20.6968 228.49C19.5768 230.837 19.7768 233.25 19.8035 235.69C19.8302 238.13 20.1902 241.023 19.9902 243.623C19.5112 247.639 19.787 251.709 20.8035 255.623C21.1501 256.783 21.2701 257.676 20.1635 258.41C19.0568 259.143 19.0435 260.276 19.6168 261.476C20.1085 262.418 20.4974 263.411 20.7768 264.436C21.245 265.943 21.4876 267.511 21.4968 269.089C21.0756 272.989 21.5312 276.934 22.8301 280.636C23.462 282.2 23.6152 283.917 23.2701 285.569C23.1193 287.566 23.3178 289.574 23.8568 291.502C24.32 293.012 24.672 294.554 24.91 296.116C24.91 299.796 26.1767 303.195 26.87 306.715C27.2675 308.464 27.38 310.265 27.2033 312.049C26.92 314.135 27.3424 316.256 28.4034 318.075C29.8833 320.849 31.63 323.528 31.9366 326.822C32.1366 328.915 33.6566 329.875 35.5632 328.848C40.3098 326.302 45.7097 326.795 50.6696 325.235C54.5496 324.008 58.9228 324.315 62.2161 321.302C62.5094 321.035 63.0161 321.035 63.4161 320.889C66.616 319.702 69.8026 318.475 73.3359 319.102C73.7582 319.139 74.1833 319.075 74.5759 318.915C78.7091 317.582 82.4291 315.915 84.3357 311.569C85.3136 309.695 85.5834 307.532 85.0957 305.475C83.9091 300.769 84.3891 295.942 85.0157 291.262C85.6424 286.582 86.0557 282.076 86.349 277.449C86.34 275.22 86.487 272.992 86.789 270.783C87.349 267.863 88.309 265.076 87.6557 261.996C87.4157 260.85 88.1223 259.516 88.309 258.263C88.8212 255.673 89.1376 253.048 89.2556 250.41C89.1722 246.985 90.2429 243.632 92.2956 240.89C94.0289 238.543 95.6822 236.29 95.8688 233.237C96.0593 232.402 96.4533 231.628 97.0155 230.983C98.2595 229.242 98.7848 227.089 98.4822 224.97C98.2906 223.258 98.7473 221.536 99.7621 220.144C100.495 218.984 101.309 217.864 102.082 216.73C103.575 214.544 104.962 212.25 106.602 210.184C110.242 205.584 115.122 202.344 119.575 198.664C123.228 195.637 127.575 193.397 131.455 190.664C132.849 189.732 134.097 188.6 135.161 187.304C138.015 183.784 140.495 179.931 145.468 178.998C146.082 178.818 146.676 178.577 147.241 178.278C150.455 176.944 153.681 175.691 156.881 174.278C160.668 172.664 164.694 171.478 167.481 168.064C168.352 167.29 169.38 166.712 170.494 166.371C172.908 165.278 175.628 164.638 177.707 163.105C181.801 160.105 186.001 157.771 191.107 156.998C193.401 156.678 195.627 155.851 197.907 155.358C199.654 154.985 201.427 154.811 203.174 154.465C203.84 154.331 204.734 154.118 205.027 153.651C205.444 153.034 205.986 152.511 206.617 152.116C207.249 151.721 207.956 151.463 208.694 151.358C210.974 150.851 213.267 150.371 215.547 149.918C219.987 149.011 224.28 147.651 228.88 147.598C232.067 147.598 235.693 147.785 238.346 144.932C239.011 144.385 239.834 144.067 240.693 144.025C243.311 143.681 245.946 143.49 248.586 143.452C251.64 143.452 254.693 144.078 257.733 143.985C260.361 143.911 262.965 143.462 265.466 142.652C267.033 142.007 268.774 141.917 270.399 142.398C275.066 144.038 279.639 142.305 284.159 141.772C287.932 141.332 291.466 139.372 295.505 139.332C297.492 139.332 299.425 139.158 300.985 140.225C302.839 141.492 304.425 141.198 306.385 140.692C311.501 139.209 316.877 138.85 322.145 139.638C324.561 140.023 327.026 139.973 329.425 139.492C330.494 139.218 331.611 139.185 332.694 139.395C333.778 139.605 334.802 140.052 335.691 140.705C338.588 142.902 342.075 144.184 345.705 144.385C348.785 144.492 351.798 145.558 354.958 144.985C356.016 144.982 357.07 145.121 358.091 145.398C359.435 145.616 360.797 145.697 362.158 145.638C364.589 145.288 367.069 145.554 369.371 146.411C375.405 148.784 381.834 149.992 388.317 149.971C390.849 149.806 393.373 150.395 395.57 151.665C396.184 152.051 396.824 152.425 397.437 152.825C399.195 154.16 401.274 155.011 403.464 155.291C406.111 155.5 408.704 156.158 411.13 157.238C418.91 160.884 426.355 165.202 433.383 170.144C434.732 171.187 436.373 171.784 438.076 171.851C438.973 171.889 439.851 172.112 440.657 172.506C441.463 172.901 442.177 173.459 442.756 174.144C445.023 176.491 447.076 179.158 450.276 180.464C451.032 180.869 451.653 181.485 452.063 182.238C453.289 184.198 454.356 186.237 455.543 188.251C456.023 189.064 456.449 190.117 457.209 190.544C459.769 191.997 461.449 194.357 463.569 196.251C465.246 197.726 466.307 199.777 466.543 201.997C466.873 204.526 467.867 206.923 469.422 208.944C470.862 210.797 472.382 213.33 472.262 215.464C472.196 218.191 472.478 220.915 473.102 223.57C473.582 226.05 474.436 228.45 475.076 230.917C475.649 233.157 476.622 235.463 475.702 237.77C474.636 240.437 475.596 242.797 476.569 245.05C477.709 247.458 477.88 250.212 477.049 252.743C476.647 253.942 476.44 255.198 476.436 256.463C476.529 259.543 476.769 262.396 476.942 265.249V265.263Z" fill="white"/>
<path d="M246.213 553.471C252.306 552.258 258.799 551.885 264.093 547.538C265.318 546.71 266.617 545.996 267.973 545.405C269.173 544.738 270.426 544.138 271.559 543.378C273.306 542.191 274.159 541.951 275.426 543.458C276.946 545.271 279.292 546.551 279.546 549.338C279.746 550.165 280.175 550.918 280.786 551.511C282.786 553.791 285.306 555.751 286.812 558.311C288.906 561.871 292.599 563.644 295.065 566.631C295.56 567.196 296.169 567.651 296.852 567.964C299.039 569.004 301.385 569.751 302.772 571.964C303.133 572.361 303.593 572.656 304.105 572.818C307.585 574.351 311.078 575.898 314.585 577.377C315.266 577.682 315.999 577.854 316.745 577.884C321.372 578.004 326.012 577.991 330.638 578.191C332.537 578.148 334.386 577.57 335.971 576.524C337.464 575.573 339.024 574.731 340.638 574.004C343.201 572.979 345.552 571.487 347.571 569.604C350.131 567.364 352.731 565.178 355.171 562.818C357.838 560.437 360.292 557.827 362.504 555.018C364.984 551.551 366.798 547.605 369.024 543.925C370.984 540.671 373.024 537.445 375.197 534.325C375.638 533.766 376.268 533.388 376.968 533.263C377.668 533.138 378.39 533.274 378.997 533.645C382.28 535.123 385.733 536.189 389.277 536.818C392.447 537.687 395.541 538.811 398.53 540.178C400.636 540.891 402.918 540.891 405.024 540.178C408.511 539.27 412.088 538.756 415.69 538.645C419.89 538.552 422.49 535.978 424.437 533.085C425.443 531.254 426.868 529.686 428.596 528.512C431.516 526.778 431.676 523.698 432.596 520.978C433.13 519.379 433.663 517.779 434.103 516.152C434.716 513.912 435.196 511.632 435.81 509.379C436.621 506.401 436.77 503.282 436.244 500.241C435.719 497.2 434.533 494.312 432.77 491.779C432.49 491.352 432.116 490.766 432.21 490.352C432.31 489.552 432.215 488.738 431.934 487.982C431.653 487.225 431.195 486.548 430.596 486.006C428.197 483.246 426.477 479.899 423.157 477.913C421.649 476.766 420.303 475.42 419.157 473.913C418.934 473.653 418.766 473.351 418.663 473.025C418.559 472.699 418.521 472.356 418.552 472.016C418.583 471.675 418.682 471.344 418.843 471.043C419.004 470.741 419.224 470.475 419.49 470.259C420.586 469.46 421.827 468.88 423.143 468.553C425.717 468.033 428.357 467.873 430.956 467.526C431.69 467.402 432.412 467.219 433.116 466.979C433.995 466.601 434.918 466.337 435.863 466.193C440.21 466.193 443.863 464.166 447.49 462.299C449.943 460.791 452.801 460.074 455.676 460.246C456.658 460.327 457.645 460.19 458.567 459.844C459.489 459.499 460.323 458.953 461.009 458.246C463.223 456.233 466.209 455.06 469.009 453.646C470.311 452.998 471.679 452.493 473.089 452.14C475.076 451.62 476.116 452.9 475.542 454.806C475.049 456.526 474.702 458.273 474.302 460.006C474.182 460.526 474.302 461.153 474.009 461.566C471.022 466.193 472.676 471.259 472.516 476.166C472.436 478.259 472.049 480.339 471.996 482.432C471.871 484.865 471.933 487.303 472.182 489.726C472.754 492.978 472.288 496.327 470.849 499.299C470.284 500.431 470.014 501.688 470.062 502.952C470.116 505.742 469.446 508.499 468.116 510.952C467.588 511.765 467.218 512.669 467.023 513.619C466.823 518.645 463.263 521.765 460.503 525.298C458.985 526.93 457.858 528.886 457.209 531.018C457.036 531.971 456.594 532.854 455.935 533.562C455.275 534.271 454.427 534.777 453.489 535.018C451.556 535.578 449.583 535.978 447.676 536.592C446.93 536.832 445.863 537.338 445.703 537.925C444.943 540.725 442.463 541.165 440.37 541.925C438.495 542.613 436.737 543.584 435.156 544.805C433.355 545.893 431.365 546.63 429.29 546.978C426.197 547.738 423.037 548.205 419.957 548.858C418.955 549.005 417.992 549.348 417.122 549.867C416.253 550.386 415.494 551.072 414.89 551.885C414.601 552.266 414.238 552.587 413.824 552.827C413.41 553.067 412.952 553.223 412.477 553.285C409.05 553.485 407.144 556.178 404.77 557.911C403.997 558.458 403.437 559.484 402.584 559.658C400.01 560.231 398.864 562.324 397.25 564.018C396.821 564.48 396.53 565.052 396.41 565.671C395.957 568.031 395.69 570.444 395.197 572.804C394.843 574.909 393.921 576.878 392.53 578.497C391.153 580.209 389.943 582.048 388.917 583.991C388.405 584.678 388.146 585.521 388.184 586.377C388.864 589.271 387.211 590.297 384.984 591.377C383.368 592.353 381.85 593.483 380.451 594.751C379.872 595.229 379.267 595.675 378.637 596.084C372.744 599.63 366.864 603.164 360.944 606.67C360.522 606.979 359.998 607.117 359.478 607.057C357.171 606.204 355.144 607.057 352.998 607.737C350.34 608.755 347.486 609.152 344.651 608.897C340.998 608.404 337.371 609.524 333.838 610.577C331.352 611.542 328.648 611.8 326.025 611.324C325.402 611.143 324.741 611.143 324.118 611.324C320.572 612.564 317.012 611.937 313.452 611.684C311.478 611.537 309.452 612.177 307.465 611.964C303.465 611.51 299.532 610.63 295.545 610.097C293.039 609.75 290.452 609.857 287.972 609.377C284.852 608.777 281.812 607.79 278.746 606.937C278.327 606.847 277.938 606.655 277.612 606.377C275.892 604.577 274.146 603.07 271.306 603.71C270.639 603.87 269.653 602.924 268.906 602.377C267.467 601.521 266.161 600.461 265.026 599.23C263.279 596.884 260.266 595.684 259.253 592.684C259.026 592.004 258.359 591.497 258.026 590.844C256.906 588.591 255.826 586.297 254.759 584.004C253.839 582.004 252.973 580.004 252.026 577.977C251.861 577.579 251.545 577.263 251.146 577.098C248.133 576.324 247.146 573.751 246.16 571.324C245 568.324 242.56 566.964 239.946 565.818C236.653 564.378 233.16 563.431 230.173 561.311C229.261 560.779 228.229 560.486 227.173 560.458C223.173 560.111 219.173 559.871 215.173 559.591C214.551 559.462 213.914 559.417 213.28 559.458C209.947 560.164 207.054 558.818 204.04 557.751C199.837 556.227 195.288 555.926 190.921 556.885C188.016 557.63 184.941 557.308 182.254 555.978C180.245 555.032 178.061 554.514 175.841 554.458C170.148 554.138 164.508 553.311 158.828 552.738C157.694 552.618 156.521 552.738 155.374 552.738C153.902 552.681 152.436 552.516 150.988 552.245C148.409 551.755 145.879 551.037 143.428 550.098C141.399 549.071 139.478 547.843 137.695 546.431C136.841 545.831 136.202 544.831 135.282 544.431C132.535 543.205 131.202 541.018 130.162 538.312C128.232 533.463 125.053 529.213 120.948 525.992C119.217 524.786 117.807 523.174 116.842 521.298C116.078 519.912 115.049 518.689 113.815 517.699C112.282 516.245 110.589 514.952 110.335 512.619C110.246 512.092 110.06 511.586 109.789 511.125C107.335 506.352 107.122 501.232 107.122 496.006C106.997 494.528 106.613 493.084 105.989 491.739C105.291 489.644 104.843 487.473 104.655 485.272C104.202 481.432 103.122 477.659 103.509 473.726C101.335 468.899 101.655 463.766 101.589 458.66C101.589 455.073 101.255 451.486 101.002 447.913C100.842 445.686 101.002 443.753 103.189 442.326C104.256 441.452 105.187 440.423 105.949 439.273C106.134 438.976 106.384 438.724 106.679 438.536C106.975 438.348 107.309 438.228 107.657 438.186C108.005 438.144 108.357 438.18 108.689 438.292C109.021 438.404 109.324 438.589 109.575 438.833C110.286 439.296 110.932 439.852 111.495 440.487C112.922 442.313 114.162 444.326 115.642 446.06C117.508 448.193 119.642 450.126 121.628 452.126C122.082 452.58 122.815 452.886 122.962 453.46C124.402 457.26 127.988 458.98 130.802 461.326C134.019 463.751 137.38 465.977 140.868 467.993C142.227 468.803 143.536 469.693 144.788 470.659C146.895 472.065 149.269 473.022 151.761 473.473C155.569 474.786 159.116 476.758 162.241 479.299C163.147 480.007 164.199 480.503 165.321 480.752C170.748 481.739 176.174 482.846 181.654 483.419C185.785 483.652 189.892 484.214 193.934 485.099C195.086 485.294 196.266 485.248 197.4 484.966C203.28 483.966 209.4 484.379 214.893 481.312C215.08 481.206 215.267 481.033 215.467 481.033C219.067 481.033 222.24 479.473 225.533 478.366C225.853 478.291 226.186 478.297 226.502 478.383C226.819 478.469 227.109 478.633 227.347 478.859C227.519 479.219 227.609 479.613 227.609 480.013C227.609 480.412 227.519 480.806 227.347 481.166C226.555 482.017 225.592 482.689 224.52 483.139C221.864 484.231 219.529 485.979 217.733 488.219C216.547 489.792 214.76 490.886 213.453 492.432C211.227 495.019 209.374 497.766 209.08 501.405C208.742 502.971 208.013 504.425 206.96 505.632C206.161 506.744 205.723 508.076 205.707 509.445C205.618 511.455 205.382 513.456 205 515.432C204.414 518.477 204.796 521.629 206.094 524.445C206.333 524.924 206.477 525.445 206.52 525.978C206.52 530.605 209.28 533.818 212.44 536.645C213.591 537.578 214.447 538.823 214.907 540.231C215.417 542.083 216.427 543.757 217.827 545.072C219.226 546.387 220.961 547.291 222.84 547.685C223.372 547.755 223.882 547.942 224.333 548.231C227.093 550.698 230.587 550.391 233.893 550.898C236.066 551.258 238.186 552.018 240.36 552.498C242.146 552.858 244.053 553.098 246.213 553.471Z" fill="white"/>
<path d="M501.369 578.804C500.897 576.902 500.567 574.968 500.382 573.018C500.364 570.821 500.534 568.626 500.889 566.458C501.318 564.177 501.286 561.833 500.795 559.564C500.315 557.764 500.702 555.751 500.595 553.845C500.489 551.938 500.089 549.645 500.049 547.538C499.843 543.838 499.946 540.128 500.355 536.445C500.661 534.376 500.661 532.274 500.355 530.205C499.955 527.263 499.542 524.316 499.115 521.365C499.094 520.727 498.968 520.096 498.742 519.498C498.26 518.487 497.993 517.387 497.956 516.267C497.919 515.148 498.114 514.033 498.529 512.992C498.897 512.219 498.982 511.341 498.769 510.512C497.435 508.045 497.889 505.619 498.369 503.099C499.049 499.485 496.942 496.526 495.702 493.392C495.407 492.791 495.253 492.129 495.253 491.459C495.253 490.789 495.407 490.127 495.702 489.526C496.43 488.113 496.772 486.534 496.695 484.947C496.618 483.36 496.123 481.821 495.262 480.486C494.306 478.876 493.79 477.043 493.766 475.17C493.743 473.298 494.213 471.453 495.129 469.819C495.796 468.631 496.749 467.627 497.902 466.899C499.825 465.659 501.413 463.964 502.524 461.964C503.636 459.964 504.237 457.721 504.275 455.433C504.609 450.166 504.169 444.86 504.275 439.567C504.457 437.79 504.874 436.046 505.515 434.38C505.903 433.121 505.984 431.788 505.752 430.492C505.52 429.195 504.982 427.973 504.182 426.927C502.609 424.62 502.849 424.78 504.182 422.553C505.703 419.813 506.992 416.949 508.035 413.994C508.609 412.487 508.515 410.754 508.955 409.18C509.089 408.7 510.142 408.034 510.528 408.167C511.605 408.576 512.612 409.147 513.515 409.86C514.848 410.807 515.862 412.007 517.168 412.874C518.761 413.939 520.098 415.344 521.082 416.988C522.067 418.632 522.674 420.473 522.862 422.38C523.462 426.38 524.195 430.38 524.768 434.287C524.835 435.023 524.835 435.764 524.768 436.5C524.688 438.713 524.075 440.9 524.768 443.166C524.875 443.797 524.843 444.443 524.675 445.06C524.302 448.113 523.968 451.166 523.515 454.206C523.293 455.243 522.999 456.264 522.635 457.26C522.288 458.46 522.008 459.673 521.635 460.859C521.32 461.848 520.95 462.818 520.528 463.766C519.875 465.206 518.662 466.566 518.542 468.033C518.288 471.366 516.608 474.059 515.315 476.926C515.032 477.614 514.635 478.249 514.142 478.806C510.715 482.326 511.128 486.339 512.622 490.472C513.806 493.207 514.483 496.135 514.622 499.112C514.757 500.238 515.039 501.34 515.462 502.392C515.855 503.238 516.124 504.136 516.262 505.059C516.075 508.779 517.915 511.725 519.422 514.899C519.536 515.079 519.63 515.271 519.702 515.472C520.688 520.432 522.048 525.338 520.928 530.498C520.408 532.858 519.688 535.498 520.248 537.698C521.115 541.031 520.835 544.285 521.022 547.591C521.208 550.645 521.462 553.698 521.635 556.764C521.717 557.612 521.635 558.467 521.395 559.284C521.134 560.019 521.027 560.8 521.082 561.578C521.137 562.356 521.353 563.114 521.715 563.804C522.189 565.541 522.307 567.355 522.062 569.138C522.062 571.551 521.262 574.071 521.728 576.351C522.095 578.317 521.896 580.347 521.155 582.204C519.464 586.731 518.982 591.62 519.755 596.391C519.835 596.809 519.835 597.239 519.755 597.657C518.955 602.017 518.048 606.364 517.315 610.737C517.014 612.498 516.906 614.286 516.995 616.07C517.252 618.617 516.79 621.186 515.662 623.483C515.167 624.834 514.792 626.226 514.542 627.643C514.185 629.295 513.621 630.894 512.862 632.403C511.339 635.043 510.5 638.023 510.422 641.07C510.362 642.307 510.001 643.511 509.368 644.576C506.515 648.896 504.649 653.71 502.302 658.283C501.981 659.068 501.884 659.926 502.022 660.763C502.555 664.923 500.315 668.056 498.302 671.296C497.23 672.73 496.335 674.288 495.635 675.936C494.515 679.429 492.035 681.869 489.689 684.442C489.396 684.762 488.916 684.976 488.782 685.336C487.556 688.629 484.782 690.669 482.622 693.242C481.151 695.199 479.18 696.724 476.916 697.655C475.322 698.45 473.871 699.505 472.622 700.775C470.521 702.847 468.226 704.713 465.769 706.349C463.068 708.024 460.517 709.929 458.143 712.042C455.969 713.855 453.796 715.375 450.823 715.495C450.413 715.505 450.01 715.602 449.64 715.779C449.27 715.956 448.941 716.209 448.676 716.522C447.756 718.055 446.343 718.082 444.876 718.415C443.467 718.798 442.119 719.381 440.876 720.148C439.223 721.068 437.743 722.322 436.05 723.148C432.05 725.135 427.89 727.148 423.703 728.815C421.414 729.621 419.082 730.298 416.717 730.842C410.517 732.628 404.41 734.841 398.05 736.028C394.144 736.775 390.637 738.375 386.904 739.361C382.904 740.428 378.757 740.761 374.677 741.495C373.302 741.706 371.959 742.086 370.678 742.628C367.729 744.079 364.409 744.6 361.158 744.121C360.063 743.87 358.925 743.887 357.838 744.17C356.752 744.453 355.75 744.995 354.918 745.748C353.738 746.633 352.299 747.102 350.825 747.081C346.531 747.588 342.305 748.601 338.025 749.268C333.745 749.935 329.652 750.455 325.452 750.921C324.198 751.181 322.897 751.088 321.692 750.655C320.897 750.232 320.003 750.032 319.103 750.077C318.204 750.122 317.334 750.409 316.585 750.908C314.622 751.738 312.444 751.916 310.372 751.415C309.137 751.308 307.894 751.335 306.665 751.495C303.652 751.748 300.772 752.481 297.599 751.308C295.252 750.441 292.386 750.855 289.759 750.975C287.132 751.095 284.946 751.468 282.519 750.548C280.725 749.984 278.873 749.622 276.999 749.468C276.377 749.496 275.769 749.67 275.226 749.975C271.909 751.462 268.247 752.011 264.639 751.561C260.456 750.934 256.213 750.804 252 751.175C248.829 751.361 245.65 751.361 242.48 751.175C240.597 750.953 238.734 750.588 236.906 750.081C232.52 749.108 228.333 746.775 223.573 748.321C222.951 748.49 222.299 748.513 221.667 748.388C214.56 747.215 207.32 747.255 200.254 745.895C197.8 745.415 195.547 744.001 193.161 743.148C191.653 742.689 190.122 742.311 188.574 742.015C188.374 742.015 188.134 742.015 187.934 742.015L172.614 737.895C170.634 737.204 168.594 736.695 166.521 736.375C164.724 736.282 162.984 735.711 161.481 734.721C159.335 733.128 156.847 732.055 154.215 731.588C153.113 731.226 152.058 730.738 151.068 730.135C149.428 729.442 147.761 728.802 146.095 728.188C144.428 727.575 142.228 727.322 140.761 726.268C137.082 723.602 132.282 722.735 129.402 718.842C128.64 718.124 127.73 717.582 126.735 717.255C123.562 715.775 120.468 714.269 118.735 710.909C118.062 709.966 117.138 709.232 116.069 708.789C113.082 707.242 109.615 706.629 107.149 704.069C106.678 703.63 106.098 703.326 105.469 703.189C100.642 702.015 97.6022 698.562 94.5222 695.015C90.6023 690.482 86.4424 686.136 82.4158 681.682C81.9667 681.097 81.5864 680.462 81.2825 679.789C80.0558 677.567 78.838 675.345 77.6292 673.123C77.4692 672.843 77.1759 672.589 77.1359 672.309C76.4559 667.309 73.1359 663.803 70.2693 660.043C67.4027 656.283 64.6961 652.136 61.8828 648.136C61.6961 647.883 61.4028 647.656 61.3228 647.363C59.6695 641.51 56.3362 636.483 53.323 631.363C53.1943 631.194 53.0951 631.005 53.0296 630.803C52.2963 627.19 51.4696 623.59 50.8963 619.963C50.5097 617.47 50.7763 614.884 48.2297 613.15C47.5897 612.697 47.4297 611.47 47.1897 610.564C45.4564 603.897 45.2164 596.91 42.7098 590.417C43.2031 587.191 40.9765 584.631 40.5232 581.631C40.5179 581.31 40.4258 580.997 40.2565 580.724C37.4432 577.764 38.1232 573.724 37.0965 570.231C36.7099 568.898 37.4032 567.324 37.6166 565.858C37.911 564.41 38.107 562.945 38.2032 561.471C38.0457 558.819 38.3387 556.159 39.0699 553.605C39.3343 552.267 39.2236 550.883 38.7498 549.605C38.0349 547.594 38.0919 545.389 38.9098 543.418C39.4147 541.803 39.7543 540.141 39.9232 538.458C40.5365 535.365 41.6298 534.312 44.3631 535.392C47.0964 536.472 49.483 536.218 52.0429 536.565C54.6029 536.912 54.9362 537.352 54.4296 539.645C53.6636 542.947 54.0056 546.409 55.4029 549.498C55.66 550.417 55.7547 551.373 55.6829 552.325C55.8829 556.018 56.0429 559.724 56.2696 563.418C56.3404 564.162 56.497 564.896 56.7362 565.604C58.6295 571.978 60.2295 578.484 62.5894 584.697C64.2027 588.951 64.5361 593.364 65.496 597.684C66.4728 602.784 68.0714 607.746 70.256 612.457C70.9493 613.87 72.0693 615.124 72.9226 616.457C74.0159 618.243 75.5892 619.99 75.9225 621.937C76.8425 626.75 79.1891 630.87 81.4158 635.083C82.2424 636.657 83.1891 638.19 84.1624 639.71C85.8024 642.283 87.4157 644.896 89.2023 647.39C90.3322 648.792 91.5431 650.128 92.8289 651.39C93.2326 651.717 93.5992 652.089 93.9222 652.496C95.4955 655.225 97.0333 657.976 98.5355 660.749C100.109 663.629 101.589 666.563 103.202 669.429C103.676 670.13 104.272 670.74 104.962 671.229C107.922 673.669 110.162 676.776 112.709 679.576C115.255 682.376 118.175 685.282 121.042 688.029C121.195 688.176 121.383 688.282 121.588 688.336C126.282 689.536 129.015 693.415 132.562 696.202C134.591 697.544 136.738 698.7 138.975 699.655C139.535 699.949 140.308 700.029 140.695 700.469C143.081 703.389 146.468 703.669 149.815 704.189C150.78 704.243 151.708 704.582 152.481 705.162C155.948 708.829 161.054 709.162 165.161 711.495C165.934 711.949 167.094 711.695 167.934 712.069C169.666 712.82 171.334 713.712 172.921 714.735C175.12 716.24 177.649 717.191 180.294 717.508C180.814 717.588 181.521 717.282 181.867 717.508C185.867 720.482 190.961 718.935 195.201 720.722C197.13 721.572 199.14 722.224 201.2 722.668C205.81 723.787 210.516 724.47 215.254 724.708C216.512 724.816 217.755 725.062 218.96 725.442C219.573 725.575 220.173 725.855 220.787 725.935C224.653 726.415 228.52 726.908 232.4 727.268C236.613 727.695 240.826 728.055 245.04 728.388C250.213 728.788 255.386 729.215 260.573 729.442C262.474 729.484 264.372 729.264 266.213 728.788C268.973 728.135 271.546 727.722 274.119 729.535C274.981 730.166 276 730.544 277.064 730.629C278.129 730.714 279.195 730.501 280.146 730.015C283.042 728.925 286.174 728.621 289.226 729.135C293.026 729.588 296.785 730.135 300.505 728.482C301.431 728.247 302.406 728.313 303.292 728.668C306.885 729.66 310.658 729.81 314.319 729.108C320.478 728.175 326.656 727.37 332.852 726.695C335.358 726.415 337.905 726.615 340.438 726.548C346.712 726.38 352.959 725.653 359.104 724.375C360.445 724.031 361.837 723.937 363.211 724.095C365.82 724.595 368.518 724.355 370.998 723.402C375.397 721.842 379.851 720.415 384.331 718.948C385.393 718.464 386.538 718.184 387.704 718.122C391.171 718.428 393.917 716.548 396.97 715.455C399.25 714.695 401.664 714.268 404.01 713.708C404.317 713.628 404.69 713.708 404.957 713.602C408.237 711.962 411.49 710.282 414.757 708.615C416.94 707.344 419.203 706.212 421.53 705.229C425.929 703.721 430.001 701.391 433.53 698.362C434.882 697.373 436.334 696.528 437.863 695.842C438.036 695.736 438.343 695.842 438.476 695.669C442.316 691.749 448.769 691.389 451.636 686.082C452.017 685.573 452.51 685.158 453.076 684.869C456.821 682.438 460.298 679.618 463.449 676.456C465.347 674.785 467.448 673.36 469.703 672.216C470.174 671.988 470.578 671.64 470.873 671.207C471.168 670.774 471.343 670.272 471.382 669.749C471.466 668.788 471.806 667.867 472.366 667.081C472.927 666.296 473.687 665.675 474.569 665.283C475.809 664.683 476.129 663.616 476.542 662.309C477.447 659.522 478.65 656.84 480.129 654.31C480.915 653.106 481.412 651.737 481.582 650.31C481.566 648.946 482.039 647.621 482.916 646.576C485.489 644.59 485.676 641.71 485.809 639.136C486.069 635.947 487.089 632.865 488.782 630.15C490.995 626.305 492.401 622.05 492.915 617.643C493.033 615.323 493.632 613.053 494.675 610.977C496.009 608.79 495.875 606.484 496.355 604.31C497.142 600.737 497.275 597.017 498.049 593.431C498.675 590.484 499.955 587.671 500.715 584.737C501.073 582.778 501.291 580.795 501.369 578.804Z" fill="white"/>
<path d="M493.089 359.648C493.089 363.101 493.649 366.581 492.062 369.914C491.741 370.711 491.685 371.59 491.902 372.421C492.12 373.122 492.191 373.86 492.111 374.59C492.031 375.319 491.801 376.024 491.435 376.661C491.144 377.218 491.059 377.86 491.195 378.474C492.529 382.981 490.942 386.994 489.262 391.021C488.608 392.585 488.051 394.188 487.596 395.821C486.001 401.661 483.343 407.157 479.756 412.034C478.497 413.877 477.484 415.876 476.742 417.98C476.449 418.99 475.94 419.923 475.249 420.715C474.558 421.507 473.703 422.139 472.742 422.567C472.013 422.875 471.355 423.332 470.811 423.908C470.267 424.484 469.849 425.167 469.582 425.913C468.129 429.26 465.289 431.393 462.329 433.313C459.955 434.926 457.488 436.4 454.943 437.727C452.143 439.06 449.489 440.846 446.303 441.42C444.65 441.713 443.076 442.406 441.45 442.833C439.41 443.353 437.37 443.833 435.316 444.233C432.925 444.554 430.594 445.223 428.397 446.22C426.545 446.962 424.544 447.259 422.557 447.086C417.33 446.993 412.33 448.766 407.144 448.793C405.908 448.938 404.658 448.706 403.557 448.126C402.241 447.231 400.681 446.766 399.09 446.793C391.8 446.24 384.69 444.25 378.171 440.94C374.477 439.1 370.757 437.313 367.078 435.447C366.099 434.998 365.198 434.395 364.411 433.66C361.518 430.74 357.744 429.14 354.331 427.127C353.11 426.564 352.098 425.631 351.438 424.46C350.105 420.767 347.438 418.234 344.651 415.82C343.523 414.873 342.74 413.579 342.425 412.14C342.114 411.261 341.663 410.437 341.091 409.7C338.825 406.234 336.554 402.776 334.278 399.327C334.073 399.082 333.923 398.796 333.838 398.487C333.507 395.44 332.426 392.522 330.692 389.994C329.518 388.007 328.665 385.794 329.745 383.327C329.922 382.601 329.852 381.836 329.545 381.154C328.286 377.568 327.893 373.735 328.398 369.968C328.605 367.963 329.478 366.085 330.878 364.634C331.907 363.589 332.591 362.253 332.838 360.808C333.208 359.069 334.032 357.459 335.225 356.141C337.139 353.866 339.463 351.971 342.078 350.555C343.825 349.661 345.105 347.888 346.785 346.861C348.825 345.528 351.065 344.635 353.198 343.501C355.902 342.066 358.766 340.956 361.731 340.195C363.915 339.424 366.022 338.451 368.024 337.288C370.118 336.288 372.211 335.262 374.331 334.342C375.019 334.071 375.751 333.927 376.491 333.915C378.504 333.795 380.491 333.848 381.824 331.782C382.251 331.142 383.997 331.062 385.051 331.235C386.513 331.431 388 331.266 389.384 330.755C391.89 329.968 394.504 329.528 397.077 328.982C397.484 328.862 397.92 328.895 398.304 329.075C400.517 330.502 402.584 329.422 404.704 328.835C405.81 328.542 406.957 328.355 408.09 328.155C409.224 327.955 410.37 327.742 411.53 327.648C412.55 327.435 413.603 327.435 414.623 327.648C417.585 328.868 420.866 329.074 423.957 328.235C424.471 328.088 425.016 328.088 425.53 328.235C430.743 329.728 436.103 329.062 441.383 329.568C444.289 329.972 447.16 330.601 449.969 331.448C452.329 332.022 454.676 332.688 457.009 333.355C457.73 333.511 458.414 333.805 459.023 334.222C462.304 336.802 466.307 338.298 470.476 338.502C471.385 338.669 472.257 338.998 473.049 339.475C475.302 340.608 477.502 341.888 479.809 342.941C480.461 343.151 481.061 343.498 481.57 343.957C482.078 344.417 482.482 344.98 482.756 345.608C483.247 346.854 483.997 347.981 484.955 348.916C485.913 349.851 487.058 350.573 488.315 351.035C491.702 352.368 492.742 354.661 492.889 357.861C492.915 358.368 492.982 359.008 493.089 359.648ZM458.049 401.26C462.543 401.18 464.196 400.047 465.676 395.927C466.183 394.527 467.009 393.261 467.356 391.794C467.829 390.195 468.023 388.526 467.929 386.861C467.836 385.914 466.743 385.047 466.076 384.194C465.409 383.341 464.743 382.527 464.183 381.647C462.009 378.368 459.996 374.981 456.183 373.328C455.817 373.103 455.518 372.786 455.316 372.408C451.049 366.621 444.756 363.728 438.583 360.674C437.09 359.928 435.45 359.475 433.903 358.821C431.232 357.825 428.46 357.123 425.637 356.728C420.826 355.569 415.821 355.474 410.97 356.448C407.543 357.191 404.175 358.18 400.89 359.408C398.344 360.435 395.957 361.808 393.131 362.008C392.784 362.008 392.464 362.488 392.131 362.728C388.304 365.528 384.611 368.528 380.611 371.048C377.757 372.848 375.891 375.901 372.611 377.074C372.438 377.074 372.317 377.381 372.157 377.514C368.651 380.381 367.251 384.567 365.398 388.447C365.256 388.953 365.256 389.488 365.398 389.994C365.555 392.295 365.095 394.597 364.064 396.661C363.649 397.392 363.428 398.219 363.424 399.061C364.211 404.674 368.758 409.727 374.491 409.367C376.403 409.255 378.302 408.987 380.171 408.567C385.504 407.327 388.064 404.394 388.771 398.941C388.831 398.303 389.109 397.705 389.558 397.249C390.008 396.792 390.601 396.505 391.237 396.434C393.068 395.891 394.655 394.732 395.73 393.154C396.869 391.776 398.264 390.63 399.837 389.781C402.37 388.447 405.17 387.647 407.744 386.554C408.449 386.319 409.079 385.9 409.57 385.341C410.093 384.591 410.858 384.043 411.736 383.788C412.614 383.533 413.553 383.587 414.397 383.941C417.637 384.847 421.143 382.954 424.25 384.954C424.317 384.954 424.463 384.954 424.57 384.954C427.237 383.861 429.25 384.954 431.09 386.767C431.596 387.16 432.152 387.483 432.743 387.727C436.25 389.674 439.77 391.607 443.263 393.581C443.951 393.883 444.554 394.351 445.019 394.941C445.484 395.532 445.797 396.227 445.93 396.967C446.006 397.718 446.34 398.419 446.875 398.951C447.409 399.483 448.112 399.814 448.863 399.887C451.756 400.354 454.863 400.794 457.996 401.26H458.049Z" fill="white"/>
<path d="M214.32 459.393C212.067 458.686 210.147 459.699 208 460.379C205.854 461.059 203.187 460.473 200.774 460.379C198.667 460.286 196.574 460.126 194.481 459.966C188.761 459.553 183.027 459.179 177.321 458.633C176.414 458.383 175.551 457.996 174.761 457.486C172.548 456.526 170.334 455.54 168.094 454.633C164.281 453.086 160.294 452.046 156.681 449.846C152.996 447.801 149.597 445.277 146.575 442.34C145.788 441.54 144.508 441.246 143.601 440.526C141.378 438.574 139.346 436.413 137.535 434.073C134.562 430.7 133.202 426.367 130.362 423.06C128.744 421.082 127.506 418.822 126.708 416.394C126.227 415.114 125.974 413.76 125.962 412.394C125.968 410.371 125.328 408.4 124.135 406.767C123.5 405.577 122.999 404.321 122.642 403.02C122.002 401.447 121.308 399.901 120.708 398.327C119.775 395.994 118.308 393.767 119.228 391.021C119.325 390.497 119.225 389.956 118.948 389.501C118.323 388.382 118.069 387.094 118.222 385.822C118.375 384.549 118.928 383.359 119.802 382.421C120.415 381.43 120.908 380.369 121.268 379.261C122.37 376.397 124.295 373.924 126.802 372.154C127.599 371.447 128.252 370.591 128.722 369.634C131.388 365.541 135.988 364.448 140.081 362.621C143.843 361.169 147.144 358.733 149.641 355.568C150.242 354.639 151.078 353.886 152.063 353.385C153.049 352.884 154.15 352.653 155.255 352.715C158.054 352.795 160.121 351.515 162.428 350.488C163.885 349.905 165.394 349.459 166.934 349.155C167.441 349.035 168.094 349.261 168.508 349.021C172.868 346.448 177.841 347.315 182.481 346.448C185.567 345.783 188.726 345.514 191.881 345.648C193.056 345.69 194.222 345.428 195.267 344.888C200.774 342.115 206.72 342.901 212.467 342.848C219.421 342.639 226.369 343.438 233.093 345.221C235.103 345.813 237.166 346.201 239.253 346.381C241.106 346.528 243 346.115 244.866 346.115C247.628 345.972 250.38 346.531 252.866 347.741C253.729 348.102 254.621 348.388 255.533 348.595C257.333 349.221 259.186 349.755 260.866 350.528C263.866 351.861 266.733 353.501 269.773 354.715C272.226 355.688 273.506 357.808 275.212 359.501C276.793 361.03 278.19 362.74 279.372 364.594C280.206 366.187 280.829 367.881 281.226 369.634C281.64 371.048 281.943 372.493 282.132 373.954C282.372 375.701 282.412 377.474 282.599 379.287C282.662 380.228 282.85 381.157 283.159 382.047C284.244 384.589 284.325 387.448 283.386 390.047C283.115 390.746 282.966 391.485 282.946 392.234C283.026 395.234 282.946 398.167 281.226 400.807C281.892 404.26 279.706 407.1 279.012 410.274C278.179 412.99 276.909 415.552 275.252 417.86C273.973 419.536 273.098 421.484 272.693 423.553C272.407 424.876 271.777 426.099 270.866 427.1C269.026 429.407 267.026 431.607 265.026 433.767C261.946 437.1 258.879 440.433 255.693 443.62C254.52 444.766 252.72 445.246 251.386 446.286C247.826 449.06 243.546 450.206 239.533 452.006C235.52 453.806 231.533 456.006 227.173 457.033C222.813 458.06 218.667 458.619 214.32 459.393ZM149.975 410.874C150.201 414.807 149.975 417.54 152.641 419.313C155.229 420.899 158.252 421.624 161.278 421.385C164.303 421.145 167.175 419.953 169.481 417.98C171.961 415.687 174.614 413.594 177.134 411.314C178.634 409.998 180.042 408.582 181.347 407.074C182.494 405.74 183.347 404.074 184.401 402.607C184.769 401.984 185.298 401.473 185.934 401.127C187.614 400.49 189.345 399.995 191.107 399.647C193.604 399.248 196.035 398.512 198.334 397.461C200.887 396.466 203.537 395.737 206.24 395.287C206.877 395.248 207.515 395.306 208.134 395.461C209.174 395.554 210.214 395.714 211.267 395.727C213.508 395.538 215.752 396.045 217.693 397.181C218.417 397.623 219.262 397.823 220.107 397.754C220.794 397.742 221.476 397.881 222.105 398.159C222.733 398.438 223.294 398.85 223.747 399.367C224.972 400.345 226.264 401.236 227.613 402.034C229.422 403.078 231.172 404.222 232.853 405.46C235.92 408.034 238.64 411.047 241.853 413.46C245.32 416.007 250.933 415.367 253.253 413.34C255.239 411.62 257.359 410.1 259.239 408.194C260.342 407.197 261.098 405.875 261.397 404.42C261.697 402.964 261.525 401.451 260.906 400.1C259.079 394.901 257.013 389.914 252 386.674C247.4 383.701 243.2 380.101 238.666 377.048C235.646 375.095 232.486 373.366 229.213 371.874C227.856 371.359 226.412 371.11 224.96 371.141C222.213 370.994 219.44 371.301 216.747 370.901C214.386 370.33 212.058 369.631 209.774 368.808C208.452 368.412 207.067 368.276 205.694 368.408C202.467 368.901 199.267 369.594 196.094 370.354C192.921 371.114 189.774 372.528 186.561 372.808C183.102 373.256 179.84 374.67 177.147 376.888C176.054 377.674 174.854 378.341 173.708 379.061C172.814 379.634 171.881 380.154 171.041 380.754C169.142 382.26 167.156 383.654 165.094 384.927C163.174 386.061 161.641 387.748 160.694 389.767C160.211 391.029 159.507 392.194 158.614 393.207C155.161 396.047 153.721 400.047 152.175 403.954C151.081 406.54 150.428 409.327 149.975 410.874Z" fill="white"/>
<path d="M14.6169 478.686C14.6169 476.779 14.4703 474.873 14.6169 472.993C14.889 471.351 15.2721 469.729 15.7636 468.139C15.8702 467.726 16.2169 467.366 16.2569 466.966C16.9369 460.113 21.9368 456.3 26.3901 451.9C28.6967 449.646 32.1366 449.406 34.2032 446.766C34.7632 446.046 36.6299 445.98 37.7898 446.18C38.5088 446.321 39.2494 446.31 39.9638 446.147C40.6782 445.984 41.3503 445.673 41.9365 445.233C44.6132 443.455 47.7778 442.555 50.9897 442.66C52.3634 442.691 53.7195 442.975 54.9896 443.5C56.4962 444.126 57.6562 445.086 57.0562 447.193C56.9315 448.449 57.0308 449.718 57.3495 450.94C57.4295 451.673 57.5895 452.406 57.6429 453.14C57.8562 456.42 58.0562 459.686 58.2695 462.953C58.2695 463.379 58.6162 463.886 58.4695 464.179C57.1362 466.753 58.6695 468.819 59.5228 471.033C61.1452 475.598 62.3457 480.302 63.1094 485.086C63.3494 486.419 63.9627 487.659 64.1227 488.992C64.2764 490.677 64.3432 492.368 64.3228 494.059C64.3228 495.952 64.3228 497.859 64.4028 499.739C64.7278 501.103 64.5026 502.54 63.7761 503.739C63.5894 504.158 63.4929 504.613 63.4929 505.072C63.4929 505.531 63.5894 505.986 63.7761 506.405C64.3943 507.827 64.5544 509.407 64.2343 510.924C63.9141 512.441 63.1295 513.821 61.9895 514.872C61.2589 515.595 60.3314 516.087 59.3228 516.285C56.4904 516.597 53.6773 517.064 50.8963 517.685C47.5364 518.645 44.1231 517.312 41.0031 516.032C37.8832 514.752 34.8032 512.832 31.67 511.245C30.7469 510.729 29.7609 510.335 28.7367 510.072C27.5905 509.812 26.5199 509.29 25.6086 508.547C24.6973 507.805 23.97 506.862 23.4834 505.792C22.4907 504.157 21.7026 502.406 21.1368 500.579C19.6835 494.499 16.7235 488.952 15.2036 482.912C14.8702 481.579 14.7369 480.246 14.5103 478.912L14.6169 478.686Z" fill="white"/>
<path d="M348.025 464.059C342.118 461.966 337.718 465.913 332.692 466.859C330.002 467.399 327.259 467.623 324.518 467.526C322.846 467.554 321.179 467.715 319.532 468.006C318.385 468.139 317.238 468.366 316.092 468.526C315.46 468.486 314.826 468.544 314.212 468.699C311.159 470.246 308.025 469.633 304.879 469.339C302.767 469.066 300.623 469.22 298.572 469.793C295.812 470.713 293.399 469.673 290.852 469.326C289.932 469.193 289.012 469.139 288.079 469.073C287.879 469.073 287.626 469.206 287.466 469.073C283.626 467.193 278.906 466.726 276.572 462.406C275.306 460.033 276.879 458.18 278.066 456.646C279.925 454.638 281.897 452.737 283.972 450.953C285.157 449.914 286.142 448.667 286.879 447.273C287.91 444.948 289.505 442.918 291.519 441.366C292.678 440.306 293.643 439.052 294.372 437.66C295.834 435.21 297.169 432.687 298.372 430.1C299.269 428.194 299.923 426.183 300.319 424.113C300.517 422.331 301.075 420.607 301.959 419.047C303.136 417.141 303.78 414.954 303.825 412.714C303.892 410.834 304.039 408.634 306.385 408.087C308.732 407.54 311.359 407.167 313.145 409.487C314.292 410.98 314.932 412.927 316.252 414.207C317.572 415.487 319.518 416.047 321.038 417.154C321.831 417.865 322.482 418.72 322.958 419.673C324.292 421.927 325.518 424.247 326.838 426.513C327.232 427.006 327.679 427.453 328.172 427.847C331.692 431.487 335.118 435.233 338.838 438.713C340.649 440.304 342.662 441.649 344.825 442.713C349.811 445.38 352.611 450.1 355.851 454.34C357.598 456.62 356.291 460.299 353.465 461.886C351.71 462.75 349.891 463.476 348.025 464.059Z" fill="white"/>
<path d="M97.4022 408.74C97.5067 409.448 97.3392 410.169 96.9334 410.757C96.5277 411.346 95.9138 411.759 95.2155 411.914C90.4889 413.414 85.6641 414.586 80.7758 415.42C76.7759 416.02 72.7759 415.167 68.776 415.874C68.6693 415.874 68.5493 415.874 68.456 415.874C62.5494 417.727 56.2829 416.167 50.3496 417.754C50.2475 417.747 50.1451 417.747 50.043 417.754C47.4697 418.74 44.9764 416.247 42.0431 418.114C39.9631 419.447 36.7099 418.78 34.0432 419.314C32.098 419.773 30.2073 420.439 28.4034 421.3C26.4834 422.127 24.7634 423.447 22.4968 423.287C22.0724 423.234 21.6437 423.343 21.2968 423.593C19.3368 425.7 16.3636 425.433 14.0569 426.7C13.7933 426.842 13.5029 426.927 13.2044 426.95C12.9059 426.973 12.6059 426.933 12.3236 426.833C10.2682 425.976 8.31411 424.894 6.49706 423.607C5.51289 422.842 4.80118 421.781 4.46737 420.58C4.13357 419.379 4.19542 418.103 4.64376 416.94C5.52375 414.274 6.31039 411.807 5.61707 408.94C5.07041 406.607 7.20372 405.287 8.89702 404.327C11.904 402.821 14.7384 400.992 17.3502 398.874C18.2903 398.156 19.3641 397.633 20.5088 397.336C21.6535 397.038 22.8461 396.972 24.0168 397.141C26.2412 397.302 28.4667 396.84 30.4433 395.807C31.9722 395.116 33.5863 394.632 35.2432 394.367C38.0298 393.767 40.8298 393.274 43.6431 392.807C45.6297 392.474 47.643 392.381 49.6163 391.994C52.6163 391.407 55.6429 391.287 58.6162 390.181C61.5895 389.074 64.6827 389.341 67.7093 388.847C70.1093 388.434 72.4426 387.674 74.8292 387.207C77.2158 386.741 79.8291 386.381 82.3491 386.061C84.2424 385.834 86.1624 385.781 88.069 385.581C91.029 385.287 92.0023 385.887 92.6156 388.701C93.5756 393.154 94.4422 397.621 95.4155 402.034C95.6155 402.954 96.1489 403.807 96.4289 404.7C96.7622 406.074 97.0955 407.42 97.4022 408.74Z" fill="white"/>
<path d="M325.905 555.058C321.038 554.445 316.638 553.871 313.505 550.045C312.713 549.323 311.814 548.729 310.839 548.285C309.399 547.378 307.892 546.578 307.239 544.831C307.056 544.446 306.776 544.115 306.425 543.871C304.159 542.165 301.812 540.565 299.625 538.765C298.564 537.905 297.7 536.828 297.092 535.605C296.252 533.805 295.852 531.832 294.052 530.538C293.319 530.018 293.532 528.965 294.439 528.392C294.804 528.175 295.187 527.992 295.585 527.845C299.585 526.365 303.479 524.858 307.452 523.418C308.145 523.139 308.904 523.065 309.639 523.205C315.105 524.765 320.425 523.685 325.758 522.552C326.809 522.402 327.872 522.353 328.932 522.405C329.77 522.533 330.621 522.555 331.465 522.472C335.798 521.298 340.105 522.645 344.425 522.578C345.818 522.569 347.192 522.903 348.425 523.552C350.145 524.458 350.691 527.045 349.598 529.232C346.651 535.232 343.625 541.231 338.851 546.045C337.611 547.298 336.718 548.885 335.558 550.231C334.901 551.07 334.102 551.787 333.198 552.351C330.772 553.685 328.385 555.111 325.905 555.058Z" fill="white"/>
</svg>
