<svg width="204" height="183" viewBox="0 0 204 183" fill="none" xmlns="http://www.w3.org/2000/svg">
<path fill-rule="evenodd" clip-rule="evenodd" d="M55.6232 183H0L4.22736 132.717H24.9563C44.239 132.717 58.5156 148.329 56.9211 167.611L55.6232 183ZM65.1904 68.9728C63.0025 95.1157 40.0487 116.29 13.9058 116.29H5.5994L14.462 10.2717H70.0852L65.1533 68.9728H65.1904ZM203.507 127.34L198.834 182.963H120.294C94.1515 182.963 71.8652 167.203 63.8925 143.026C55.9198 118.848 63.7813 91.0366 83.8056 72.5326L162.494 0L198.538 39.3441L119.849 111.951C113.879 116.994 116.809 127.563 124.967 127.377H203.507V127.34Z" fill="black"/>
</svg>
