<?xml version="1.0" encoding="utf-8"?>
<svg xmlns="http://www.w3.org/2000/svg">
  <defs>
    <symbol id="code" viewBox="0 0 256 256">
      <path
        fill="currentColor"
        d="M69.12,94.15,28.5,128l40.62,33.85a8,8,0,1,1-10.24,12.29l-48-40a8,8,0,0,1,0-12.29l48-40a8,8,0,0,1,10.24,12.3Zm176,27.7-48-40a8,8,0,1,0-10.24,12.3L227.5,128l-40.62,33.85a8,8,0,1,0,10.24,12.29l48-40a8,8,0,0,0,0-12.29ZM162.73,32.48a8,8,0,0,0-10.25,4.79l-64,176a8,8,0,0,0,4.79,10.26A8.14,8.14,0,0,0,96,224a8,8,0,0,0,7.52-5.27l64-176A8,8,0,0,0,162.73,32.48Z"
      ></path>
    </symbol>

    <symbol id="commerce" viewBox="0 0 256 256">
      <path
        fill="currentColor"
        d="M96,216a16,16,0,1,1-16-16A16,16,0,0,1,96,216Zm88-16a16,16,0,1,0,16,16A16,16,0,0,0,184,200ZM231.65,74.35l-28.53,92.71A23.89,23.89,0,0,1,180.18,184H84.07A24.11,24.11,0,0,1,61,166.59L24.82,40H8A8,8,0,0,1,8,24H24.82A16.08,16.08,0,0,1,40.21,35.6L48.32,64H224a8,8,0,0,1,7.65,10.35ZM213.17,80H52.89l23.49,82.2a8,8,0,0,0,7.69,5.8h96.11a8,8,0,0,0,7.65-5.65Z"
      ></path>
    </symbol>

    <svg id="text" viewBox="0 0 256 256">
      <path
        fill="currentColor"
        d="M87.24,52.59a8,8,0,0,0-14.48,0l-64,136a8,8,0,1,0,14.48,6.81L39.9,160h80.2l16.66,35.4a8,8,0,1,0,14.48-6.81ZM47.43,144,80,74.79,112.57,144ZM200,96c-12.76,0-22.73,3.47-29.63,10.32a8,8,0,0,0,11.26,11.36c3.8-3.77,10-5.68,18.37-5.68,13.23,0,24,9,24,20v3.22A42.76,42.76,0,0,0,200,128c-22.06,0-40,16.15-40,36s17.94,36,40,36a42.73,42.73,0,0,0,24-7.25,8,8,0,0,0,16-.75V132C240,112.15,222.06,96,200,96Zm0,88c-13.23,0-24-9-24-20s10.77-20,24-20,24,9,24,20S213.23,184,200,184Z"
      ></path>
    </svg>

    <symbol id="web" viewBox="0 0 256 256">
      <path
        fill="currentColor"
        d="M216,40H40A16,16,0,0,0,24,56V200a16,16,0,0,0,16,16H216a16,16,0,0,0,16-16V56A16,16,0,0,0,216,40Zm0,16V88H40V56Zm0,144H40V104H216v96Z"
      ></path>
    </symbol>

    <symbol id="search" viewBox="0 0 256 256">
      <path
        fill="currentColor"
        d="M229.66,218.34l-50.07-50.06a88.11,88.11,0,1,0-11.31,11.31l50.06,50.07a8,8,0,0,0,11.32-11.32ZM40,112a72,72,0,1,1,72,72A72.08,72.08,0,0,1,40,112Z"
      ></path>
    </symbol>

    <symbol id="accessibility" viewBox="0 0 256 256">
      <path
        fill="currentColor"
        d="M213.92,210.62a8,8,0,1,1-11.84,10.76l-35-38.45A24,24,0,0,1,136,160a40.83,40.83,0,0,1,1.21-10L96,104.66A8,8,0,0,1,80,104a47.84,47.84,0,0,1,2.22-14.46L64.5,70A71.47,71.47,0,0,0,56,104c0,26.7,8.53,34.92,17.57,43.64C82.21,156,92,165.41,92,188a36,36,0,0,0,36,36c10.24,0,18.45-4.16,25.83-13.09a8,8,0,1,1,12.34,10.18C155.81,233.64,143,240,128,240a52.06,52.06,0,0,1-52-52c0-15.79-5.68-21.27-13.54-28.84C52.46,149.5,40,137.5,40,104A87.26,87.26,0,0,1,53.21,57.62L42.08,45.38A8,8,0,1,1,53.92,34.62ZM91.09,42.17A72,72,0,0,1,200,104a8,8,0,0,0,16,0A88,88,0,0,0,82.87,28.44a8,8,0,1,0,8.22,13.73Zm69.23,85a8,8,0,0,0,10.78-3.44A41.93,41.93,0,0,0,176,104a48,48,0,0,0-63.57-45.42,8,8,0,0,0,5.19,15.14A32,32,0,0,1,160,104a26,26,0,0,1-3.12,12.34A8,8,0,0,0,160.32,127.12Z"
      ></path>
    </symbol>
  </defs>
</svg>
