<?xml version="1.0" standalone="no"?>
<!DOCTYPE svg PUBLIC "-//W3C//DTD SVG 20010904//EN"
 "http://www.w3.org/TR/2001/REC-SVG-20010904/DTD/svg10.dtd">
<svg version="1.0" xmlns="http://www.w3.org/2000/svg"
 width="700.000000pt" height="700.000000pt" viewBox="0 0 700.000000 700.000000"
 preserveAspectRatio="xMidYMid meet">
<metadata>
Created by potrace 1.14, written by Peter Selinger 2001-2017
</metadata>
<g transform="translate(0.000000,700.000000) scale(0.100000,-0.100000)"
fill="#000000" stroke="none">
<path d="M5 5901 c-3 -2 -5 -312 -5 -688 l0 -683 718 0 718 0 -1 688 0 687
-713 1 c-392 0 -715 -2 -717 -5z"/>
<path d="M2910 5896 c0 -6 -31 -105 -69 -221 -38 -115 -117 -358 -176 -540
-59 -181 -115 -355 -125 -385 -10 -30 -73 -221 -139 -425 -66 -203 -134 -415
-152 -470 -18 -55 -33 -102 -34 -105 -1 -3 -22 -70 -48 -150 -55 -165 -123
-376 -297 -910 -67 -206 -182 -562 -257 -790 -74 -228 -157 -485 -184 -570
-28 -85 -59 -179 -70 -208 -10 -30 -19 -58 -19 -63 0 -5 277 -9 679 -9 l679 0
10 27 c6 16 47 143 92 283 45 140 92 287 105 325 37 110 249 759 251 770 2 12
101 316 154 475 42 127 174 532 175 540 1 5 91 282 161 495 36 110 134 414
212 655 82 254 290 893 347 1070 30 91 57 176 60 190 l6 26 -680 0 c-443 0
-681 -4 -681 -10z"/>
<path d="M5591 5755 c-27 -82 -95 -292 -151 -465 -57 -173 -119 -367 -140
-430 -21 -63 -81 -250 -135 -415 -53 -165 -99 -307 -102 -315 -3 -8 -7 -19 -8
-25 -3 -11 -112 -347 -150 -460 -13 -38 -69 -212 -125 -385 -56 -173 -104
-322 -107 -330 -3 -8 -7 -19 -8 -25 -2 -5 -16 -50 -33 -100 -16 -49 -65 -198
-107 -330 -42 -132 -86 -265 -97 -295 -11 -30 -21 -63 -23 -73 -2 -9 -17 -57
-33 -105 -16 -48 -73 -222 -127 -387 -53 -165 -108 -334 -122 -375 -13 -41
-32 -101 -43 -132 l-18 -58 682 0 681 0 13 43 c19 62 193 599 199 617 3 8 7
20 9 25 1 6 22 71 47 145 71 216 191 585 192 590 0 3 36 113 79 245 43 132
107 330 143 440 35 110 75 232 88 270 13 39 65 198 116 355 50 157 108 337
129 400 21 63 58 178 83 255 71 220 270 832 371 1145 51 157 96 294 100 305 6
21 5 21 -673 21 l-680 0 -50 -151z"/>
</g>
</svg>
